# AST/ASF file generated using VICON BodyLanguage
# -----------------------------------------------
:version 1.10
:name VICON
:units
  mass 1.0
  length 0.1
  angle deg
:documentation
   .ast/.asf automatically generated from VICON data using
   VICON BodyBuilder and BodyLanguage model FULLBODY5.MOD
:root
   order TX TY TZ RZ RY RX
   axis XYZ
   position 0 0 0  
   orientation 0 -0 0 
:bonedata
  begin
     id 1 
     name lhipjoint
     direction 0.969109 -0.218487 0.11442 
     length 0.544217 
     axis 0 -0 0  XYZ
  end
  begin
     id 2 
     name lfemur
     direction 0.173648 -0.984808 0  
     length 1.81499  
     axis 0 -0 10  XYZ
    dof rx ry rz
    limits (-180.0 180.0)
           (-180.0 180.0)
           (-180.0 180.0)
  end
  begin
     id 3 
     name ltibia
     direction 0.173515 -0.984831 0   
     length 1.55296   
     axis 0 -0 10   XYZ
    dof rx ry rz
    limits (-180.0 180.0)
           (-180.0 180.0)
           (-180.0 180.0)
  end
  begin
     id 4 
     name lfoot
     direction 7.36097e-012 -0.333012 0.942922   
     length 0.509062   
     axis -90 -1.73656e-015 10   XYZ
    dof rx ry rz
    limits (-180.0 180.0)
           (-180.0 180.0)
           (-180.0 180.0)
  end
  begin
     id 5 
     name ltoes
     direction 7.7847e-012 -4.42403e-011 1   
     length 0.249732   
     axis -90 -1.73656e-015 10   XYZ
    dof rx ry rz
    limits (-180.0 180.0)
           (-180.0 180.0)
           (-180.0 180.0)
  end
  begin
     id 6 
     name rhipjoint
     direction -0.966745 -0.226554 0.118645   
     length 0.524838  
     axis 0 -0 0  XYZ 
  end
  begin
     id 7 
     name rfemur
     direction -0.173648 -0.984808 0   
     length 1.84625   
     axis 0 -0 -10   XYZ
    dof rx ry rz
    limits (-180.0 180.0)
           (-180.0 180.0)
           (-180.0 180.0)
  end
  begin
     id 8 
     name rtibia
     direction -0.173714 -0.984796 0   
     length 1.577   
     axis 0 -0 -10   XYZ
    dof rx ry rz
    limits (-180.0 180.0)
           (-180.0 180.0)
           (-180.0 180.0)
 end
 begin
     id 9 
     name rfoot
     direction -0.0183819 -0.0406144 0.999006   
     length 0.490111  
     axis -90 1.73656e-015 -10   XYZ
    dof rx ry rz
    limits (-180.0 180.0)
           (-180.0 180.0)
           (-180.0 180.0)
  end
  begin
     id 10 
     name rtoes
     direction -7.79087e-012 -4.42375e-011 1   
     length 0.245053   
     axis -90 1.73656e-015 -10   XYZ
    dof rx ry rz
    limits (-180.0 180.0)
           (-180.0 180.0)
           (-180.0 180.0)
  end
  begin
     id 11 
     name lowerback
     direction -0.0664844 0.980601 0.184393   
     length 0.458979   
     axis 0 -0 0   XYZ
    dof rx ry rz
    limits (-180.0 180.0)
           (-180.0 180.0)
           (-180.0 180.0)
  end
  begin
     id 12 
     name upperback
     direction 0.0135995 0.999573 0.02588   
     length 0.463983   
     axis 0 -0 0   XYZ
    dof rx ry rz
    limits (-180.0 180.0)
           (-180.0 180.0)
           (-180.0 180.0)
  end
  begin
     id 13 
     name thorax
     direction 0.0468402 0.997311 -0.0563691   
     length 0.482746   
     axis 0 -0 0   XYZ
    dof rx ry rz
    limits (-180.0 180.0)
           (-180.0 180.0)
           (-180.0 180.0)
  end
  begin
     id 14 
     name lowerneck
     direction -0.00174311 0.988586 -0.150647   
     length 0.364383   
     axis 0 -0 0   XYZ
    dof rx ry rz
    limits (-180.0 180.0)
           (-180.0 180.0)
           (-180.0 180.0)
  end
  begin
     id 15 
     name upperneck
     direction -0.02653 0.999379 -0.0231908   
     length 0.361006   
     axis 0 -0 0   XYZ
    dof rx ry rz
    limits (-180.0 180.0)
           (-180.0 180.0)
           (-180.0 180.0)
  end
  begin
     id 16
     name head
     direction -0.00819207 0.999941 0.00714285  
     length 0.378714  
     axis 0 -0 0   XYZ
    dof rx ry rz
    limits (-180.0 180.0)
           (-180.0 180.0)
           (-180.0 180.0)
  end
  begin
     id 17 
     name lshoulderjoint
     direction 0.981627 -0.190809 0  
     length 0.612969  
     axis 0 -0 -11   XYZ
    dof rx ry rz
    limits (-180.0 180.0)
           (-180.0 180.0)
           (-180.0 180.0)
  end
  begin
     id 18 
     name lhumerus
     direction 0.48481 -0.87462 -9.72962e-027   
     length 1.19637   
     axis -180 5.14477e-009 -151   XYZ
    dof rx ry rz
    limits (-180.0 180.0)
           (-180.0 180.0)
           (-180.0 180.0)
  end
  begin
     id 19
     name lradius
     direction 0.48481 -0.87462 -2.35761e-026   
     length 0.637735   
     axis -180 5.14477e-009 -151   XYZ
    dof rx ry rz
    limits (-180.0 180.0)
           (-180.0 180.0)
           (-180.0 180.0)
  end
  begin
     id 20
     name lwrist
     direction 0.48481 -0.87462 -5.51856e-026   
     length 0.318868   
     axis -180 5.14477e-009 -151   XYZ
    dof rx ry rz
    limits (-180.0 180.0)
           (-180.0 180.0)
           (-180.0 180.0)
  end
  begin
     id 21 
     name lhand
     direction 0.477747 -0.861928 -0.169816   
     length 0.29526   
     axis -180 5.14477e-009 -151   XYZ
    dof rx ry rz
    limits (-180.0 180.0)
           (-180.0 180.0)
           (-180.0 180.0)
  end
  begin
     id 22 
     name rshoulderjoint
     direction -0.981627 -0.190809 0   
     length 0.572347  
     axis 0 -0 11   XYZ 
    dof rx ry rz
    limits (-180.0 180.0)
           (-180.0 180.0)
           (-180.0 180.0)
  end
  begin
     id 23 
     name rhumerus
     direction -0.48481 -0.87462 1.64836e-026  
     length 1.28846   
     axis 180 5.14477e-009 151   XYZ
    dof rx ry rz
    limits (-180.0 180.0)
           (-180.0 180.0)
           (-180.0 180.0)
  end
  begin
     id 24 
     name rradius
     direction -0.48481 -0.87462 2.86827e-026   
     length 0.62107   
     axis 180 5.14477e-009 151   XYZ
    dof rx ry rz
    limits (-180.0 180.0)
           (-180.0 180.0)
           (-180.0 180.0)
  end
  begin
     id 25 
     name rwrist
     direction -0.48481 -0.87462 5.20942e-026   
     length 0.310535   
     axis 180 5.14477e-009 151   XYZ
    dof rx ry rz
    limits (-180.0 180.0)
           (-180.0 180.0)
           (-180.0 180.0)
  end
  begin
     id 26
     name rhand
     direction -0.477664 -0.861515 -0.172133   
     length 0.291321   
     axis 180 5.14477e-009 151   XYZ
    dof rx ry rz
    limits (-180.0 180.0)
           (-180.0 180.0)
           (-180.0 180.0)
  end
:hierarchy
  begin
    root lhipjoint rhipjoint lowerback 
    lhipjoint lfemur
    lfemur ltibia
    ltibia lfoot
    lfoot ltoes
    rhipjoint rfemur
    rfemur rtibia
    rtibia rfoot
    rfoot rtoes
    lowerback upperback
    upperback thorax
    thorax lowerneck lshoulderjoint rshoulderjoint
    lowerneck upperneck
    upperneck head
    lshoulderjoint lhumerus
    lhumerus lradius
    lradius lwrist
    lwrist lhand
    rshoulderjoint rhumerus
    rhumerus rradius
    rradius rwrist
    rwrist rhand
  end

:FULLY-SPECIFIED
:DEGREES
3008
root 0.696496 3.72052 -0.555201 449.621 -71.4088 88.3629
lowerback -26.8021 0.477331 -5.37523
upperback -5.97966 1.53755 0.438708
thorax 7.98872 0.423597 4.05595
lowerneck 16.4067 -3.06649 -3.13635
upperneck 3.08458 -4.9158 -1.51833
head -1.76198 -2.53314 0.370024
rshoulderjoint 0.41323 -0.600935 -45.5151
rhumerus 194.63 -62.8602 -189.562
rradius 33.5981 4.23014e-013 -5.40694e-014
rwrist 6.49913e-013 -5.19589 -5.03004e-013
rhand 20.4717 5.05295 -11.2172
lshoulderjoint -0.585887 -0.957189 42.4725
lhumerus 634.963 84.1139 634.466
lradius 38.6164 -1.75726e-013 1.76521e-013
lwrist 3.15142e-013 -18.7387 6.04544e-013
lhand 22.2248 16.8185 -28.8458
rfemur -14.8202 17.648 7.9395
rtibia 3.97569e-015 2.54444e-014 5.1684e-015
rfoot -178.936 -53.6473 161.73
rtoes -1.55052e-014 2.95096e-013 -2.44008e-014
lfemur -9.96837 -11.897 -13.5851
ltibia 0 -1.74931e-014 -1.27222e-014
lfoot -8.55946 4.77482 9.93771
ltoes -5.73991e-015 1.01563e-013 3.25013e-014
3009
root 0.694957 3.72055 -0.55569 449.594 -71.3685 88.3598
lowerback -26.7666 0.500777 -5.33511
upperback -6.0163 1.55225 0.431073
thorax 7.92989 0.433208 4.02728
lowerneck 16.3394 -3.0622 -3.14381
upperneck 3.13443 -4.90916 -1.55406
head -1.73404 -2.53032 0.357008
rshoulderjoint 0.428376 -0.620201 -45.6341
rhumerus 194.697 -62.8282 -189.537
rradius 33.5898 -2.95792e-013 -1.06549e-013
rwrist 1.88416e-013 -5.15877 1.61271e-013
rhand 20.2807 5.00496 -11.2187
lshoulderjoint -0.575194 -0.940275 42.4573
lhumerus 636.551 83.764 636.058
lradius 38.6062 2.34566e-013 9.70069e-014
lwrist 2.47253e-013 -18.3475 -5.69653e-014
lhand 23.089 16.5908 -27.6926
rfemur -14.8344 17.6502 7.96695
rtibia 1.59028e-014 3.81667e-014 3.57812e-015
rfoot -178.895 -53.6553 161.696
rtoes 6.0033e-014 2.68036e-013 -8.24956e-015
lfemur -9.98573 -11.8985 -13.5477
ltibia 1.59028e-014 -1.43125e-014 -6.36111e-015
lfoot -8.58631 4.80634 9.93323
ltoes -3.598e-014 6.78863e-014 5.85421e-014
3010
root 0.693612 3.72062 -0.556192 449.617 -71.3281 88.3926
lowerback -26.7255 0.536043 -5.31162
upperback -6.05763 1.5871 0.411898
thorax 7.86069 0.452497 4.00152
lowerneck 16.2589 -3.06056 -3.14747
upperneck 3.19868 -4.90411 -1.57547
head -1.69866 -2.52911 0.347466
rshoulderjoint 0.491549 -0.708872 -45.7397
rhumerus 194.545 -62.7311 -189.306
rradius 33.5735 3.88028e-013 1.00187e-013
rwrist -1.37323e-013 -5.17104 -2.74645e-013
rhand 20.0891 5.07399 -11.2805
lshoulderjoint -0.573967 -0.937366 42.4819
lhumerus 636.254 83.5447 635.801
lradius 38.5992 -1.55052e-013 -5.88403e-014
lwrist -4.59007e-013 -17.9491 -3.34327e-014
lhand 23.8697 16.2438 -26.6784
rfemur -14.8553 17.6639 7.97846
rtibia -2.78299e-014 2.22639e-014 -1.59028e-015
rfoot -178.884 -53.6665 161.678
rtoes -7.07673e-014 -2.00027e-013 1.14898e-013
lfemur -10.0032 -11.8884 -13.5253
ltibia -9.54166e-015 -7.95139e-015 -2.38542e-015
lfoot -8.59792 4.7858 9.92562
ltoes 2.12724e-013 -7.48442e-014 -8.34896e-015
3011
root 0.692325 3.72061 -0.55658 449.656 -71.2877 88.4198
lowerback -26.6724 0.551995 -5.31252
upperback -6.10423 1.60093 0.408682
thorax 7.78032 0.461633 4.0004
lowerneck 16.1605 -3.04281 -3.17103
upperneck 3.30183 -4.88234 -1.64313
head -1.64793 -2.51987 0.324503
rshoulderjoint 0.529318 -0.75967 -45.8693
rhumerus 194.466 -62.6964 -189.169
rradius 33.5592 1.90833e-014 9.14409e-014
rwrist -4.34317e-013 -5.16202 9.50068e-014
rhand 19.9351 5.04543 -11.3196
lshoulderjoint -0.543658 -0.888123 42.4744
lhumerus 634.912 83.4154 634.491
lradius 38.5801 -1.27222e-013 -2.19458e-013
lwrist -2.65124e-013 -17.5526 -2.6687e-013
lhand 24.4766 15.8218 -25.8791
rfemur -14.8776 17.6746 7.96412
rtibia -5.56597e-014 -4.77083e-014 9.54166e-015
rfoot -178.871 -53.6728 161.662
rtoes -1.37957e-013 -5.80476e-013 1.83876e-013
lfemur -10.0197 -11.8793 -13.523
ltibia -4.29375e-014 2.06736e-014 1.35174e-014
lfoot -8.62409 4.89975 9.90537
ltoes 3.10775e-013 -1.90038e-013 -1.78906e-015
3012
root 0.691009 3.72058 -0.556903 449.738 -71.2456 88.5006
lowerback -26.6271 0.575862 -5.29922
upperback -6.164 1.62038 0.399448
thorax 7.68925 0.473751 3.98606
lowerneck 16.1151 -3.02065 -3.18007
upperneck 3.39954 -4.85454 -1.68944
head -1.60827 -2.50814 0.306908
rshoulderjoint 0.545187 -0.779665 -45.9652
rhumerus 194.337 -62.5696 -188.961
rradius 33.5365 3.65764e-013 7.4743e-014
rwrist -1.75637e-014 -5.14152 -2.92995e-013
rhand 19.7732 5.12751 -11.3709
lshoulderjoint -0.541092 -0.88346 42.488
lhumerus 635.67 83.1546 635.3
lradius 38.5536 -1.33583e-013 4.13472e-014
lwrist -2.55946e-013 -17.3923 1.53315e-013
lhand 24.5885 15.8173 -25.5418
rfemur -14.9022 17.7022 7.95596
rtibia -1.66979e-014 3.81667e-014 7.55382e-015
rfoot -178.851 -53.6745 161.653
rtoes -1.59028e-014 2.70322e-013 8.50301e-014
lfemur -10.0367 -11.855 -13.5176
ltibia -1.90833e-014 -2.70347e-014 -9.54166e-015
lfoot -8.65746 4.88423 9.89488
ltoes 1.8487e-013 2.51727e-014 3.29983e-014
3013
root 0.689611 3.72045 -0.55715 449.782 -71.1999 88.553
lowerback -26.6095 0.602246 -5.27173
upperback -6.21157 1.64197 0.388036
thorax 7.62623 0.486091 3.96283
lowerneck 16.0588 -2.99847 -3.16717
upperneck 3.49946 -4.82219 -1.74426
head -1.56681 -2.49375 0.282392
rshoulderjoint 0.581677 -0.829288 -46.0483
rhumerus 194.427 -62.6908 -189.002
rradius 33.4992 -5.82042e-013 -1.88448e-013
rwrist 8.76482e-013 -5.06268 4.17486e-013
rhand 19.6764 4.89529 -11.2929
lshoulderjoint -0.531939 -0.868315 42.4938
lhumerus 635.814 82.9861 635.492
lradius 38.5375 2.61601e-013 2.25819e-013
lwrist 9.77051e-013 -17.2221 3.19666e-013
lhand 24.5115 15.7397 -25.4584
rfemur -14.928 17.7209 7.95985
rtibia 2.46493e-014 1.90833e-014 3.97569e-015
rfoot -178.825 -53.6796 161.631
rtoes 8.22969e-014 6.7065e-013 -8.47817e-014
lfemur -10.0548 -11.8392 -13.4979
ltibia 3.02153e-014 -1.74931e-014 -2.78299e-014
lfoot -8.69299 4.94155 9.87078
ltoes -1.46952e-013 2.13483e-013 8.8161e-014
3014
root 0.688276 3.72042 -0.557341 449.864 -71.1842 88.6478
lowerback -26.5692 0.628938 -5.2394
upperback -6.24878 1.66203 0.38692
thorax 7.56357 0.498056 3.94737
lowerneck 16.0016 -2.96815 -3.20378
upperneck 3.60817 -4.7872 -1.76792
head -1.52034 -2.47981 0.275887
rshoulderjoint 0.639911 -0.909396 -46.135
rhumerus 194.091 -62.5975 -188.615
rradius 33.4655 4.77083e-014 2.33771e-013
rwrist -7.59877e-013 -5.01136 2.70586e-013
rhand 19.524 4.97158 -11.267
lshoulderjoint -0.524273 -0.856368 42.4769
lhumerus 635.568 82.8554 635.285
lradius 38.516 -1.86858e-013 -3.08514e-013
lwrist -7.46973e-013 -17.2335 -4.62878e-013
lhand 24.1874 15.7963 -25.6254
rfemur -14.9292 17.7534 7.97033
rtibia -5.725e-014 -3.81667e-014 2.38542e-015
rfoot -178.789 -53.6836 161.603
rtoes -1.30403e-013 -3.95979e-013 1.91082e-013
lfemur -10.0463 -11.809 -13.486
ltibia -4.77083e-014 1.27222e-014 3.97569e-015
lfoot -8.72235 4.94918 9.86335
ltoes 2.95469e-013 -1.34403e-013 -1.85864e-014
